<svg version="1.1" id="Layer_1" xmlns="http://www.w3.org/2000/svg" xmlns:xlink="http://www.w3.org/1999/xlink" x="0px" y="0px"
	 width="100%" viewBox="0 0 148 148" enable-background="new 0 0 148 148" xml:space="preserve">
<path fill="#060606" opacity="1.000000" stroke="none" 
	d="
M84.000000,1.000000 
	C84.444443,1.000000 84.888893,1.000000 85.772743,1.379178 
	C86.844368,1.936926 87.468964,2.150875 88.109894,2.288989 
	C118.235054,8.780556 137.709534,26.776646 146.517639,56.317139 
	C147.286438,58.895580 148.169830,61.439854 149.000000,64.000000 
	C149.000000,71.354256 149.000000,78.708504 148.621445,86.618813 
	C147.978836,87.950211 147.643723,88.709206 147.461029,89.503265 
	C140.876450,118.119019 123.605598,136.933197 95.669632,145.937454 
	C92.149734,147.071991 88.558289,147.984573 85.000000,149.000000 
	C77.645752,149.000000 70.291496,149.000000 62.468033,148.606979 
	C61.415100,147.935089 60.858925,147.541382 60.243706,147.393799 
	C29.201761,139.947281 10.052691,120.658089 2.604681,89.649826 
	C2.374917,88.693253 1.548340,87.880043 1.000001,87.000000 
	C1.000000,79.312424 1.000000,71.624847 1.387429,63.408737 
	C2.046250,62.106133 2.394912,61.349857 2.577878,60.555416 
	C9.434831,30.782459 27.772861,11.900600 56.891731,3.206377 
	C58.962780,2.588008 60.965504,1.740802 63.000000,1.000000 
	C68.688042,1.000000 74.376083,1.000000 80.673439,1.302318 
	C82.188499,1.403091 83.094254,1.201545 84.000000,1.000000 
M101.314903,16.059002 
	C92.684425,12.156804 83.578987,10.271996 74.165512,10.523033 
	C35.997429,11.540891 8.176557,42.468712 10.878783,80.680801 
	C14.003334,124.864937 62.595497,152.970703 102.500717,133.349167 
	C126.621475,121.488899 139.541946,101.503166 139.455078,74.718475 
	C139.368088,47.894688 125.956131,28.455568 101.314903,16.059002 
z"/>
<path fill="#FCFCFC" opacity="1.000000" stroke="none" 
	d="
M149.000000,63.531342 
	C148.169830,61.439854 147.286438,58.895580 146.517639,56.317139 
	C137.709534,26.776646 118.235054,8.780556 88.109894,2.288989 
	C87.468964,2.150875 86.844368,1.936926 86.106079,1.379178 
	C106.926819,1.000000 127.853638,1.000000 149.000000,1.000000 
	C149.000000,21.687044 149.000000,42.374863 149.000000,63.531342 
z"/>
<path fill="#FCFCFC" opacity="1.000000" stroke="none" 
	d="
M85.468658,149.000000 
	C88.558289,147.984573 92.149734,147.071991 95.669632,145.937454 
	C123.605598,136.933197 140.876450,118.119019 147.461029,89.503265 
	C147.643723,88.709206 147.978836,87.950211 148.621445,87.087433 
	C149.000000,107.594650 149.000000,128.189301 149.000000,149.000000 
	C127.979599,149.000000 106.958458,149.000000 85.468658,149.000000 
z"/>
<path fill="#FCFCFC" opacity="1.000000" stroke="none" 
	d="
M62.531342,1.000000 
	C60.965504,1.740802 58.962780,2.588008 56.891731,3.206377 
	C27.772861,11.900600 9.434831,30.782459 2.577878,60.555416 
	C2.394912,61.349857 2.046250,62.106133 1.387429,62.940102 
	C1.000000,42.406513 1.000000,21.813030 1.000000,1.000000 
	C21.353703,1.000000 41.708191,1.000000 62.531342,1.000000 
z"/>
<path fill="#FCFCFC" opacity="1.000000" stroke="none" 
	d="
M1.000001,87.468658 
	C1.548340,87.880043 2.374917,88.693253 2.604681,89.649826 
	C10.052691,120.658089 29.201761,139.947281 60.243706,147.393799 
	C60.858925,147.541382 61.415100,147.935089 61.999413,148.606979 
	C41.739254,149.000000 21.478504,149.000000 1.000000,149.000000 
	C1.000000,128.646286 1.000000,108.291801 1.000001,87.468658 
z"/>
<path fill="#979797" opacity="1.000000" stroke="none" 
	d="
M83.625000,1.000000 
	C83.094254,1.201545 82.188499,1.403091 81.141373,1.302318 
	C81.750000,1.000000 82.500000,1.000000 83.625000,1.000000 
z"/>
<path fill="#FCFCFC" opacity="1.000000" stroke="none" 
	d="
M101.668015,16.198208 
	C125.956131,28.455568 139.368088,47.894688 139.455078,74.718475 
	C139.541946,101.503166 126.621475,121.488899 102.500717,133.349167 
	C62.595497,152.970703 14.003334,124.864937 10.878783,80.680801 
	C8.176557,42.468712 35.997429,11.540891 74.165512,10.523033 
	C83.578987,10.271996 92.684425,12.156804 101.668015,16.198208 
M86.484001,38.390434 
	C76.561676,42.781895 74.589531,65.176147 83.378258,73.411636 
	C84.809334,74.752625 85.798225,77.254532 85.856567,79.252983 
	C86.118607,88.228867 85.950478,97.216797 85.981522,106.200226 
	C85.993256,109.593605 86.664711,112.943756 90.901550,112.836906 
	C95.223724,112.727928 95.452179,109.269676 95.337540,105.921867 
	C95.030190,96.946854 94.683861,87.972710 94.470001,78.995438 
	C94.437592,77.635300 94.572327,75.517113 95.403183,75.005440 
	C105.288658,68.917496 104.804825,59.527592 102.892403,50.234531 
	C101.007858,41.076965 94.800903,36.084721 86.484001,38.390434 
M65.620041,70.156311 
	C66.747948,67.826584 68.695999,65.549850 68.850601,63.157230 
	C69.321785,55.864723 69.178368,48.526302 69.060051,41.209213 
	C69.044037,40.219215 67.803391,39.249023 67.129799,38.269669 
	C66.192299,39.201935 64.538147,40.067303 64.443764,41.078274 
	C64.073685,45.042423 64.383110,49.068924 64.035553,53.036831 
	C63.909779,54.472687 62.648529,55.809090 61.905407,57.190872 
	C61.236385,55.722446 60.091820,54.285271 59.992867,52.779388 
	C59.753601,49.138069 60.226120,45.447170 59.941853,41.813015 
	C59.831009,40.396004 58.459263,39.077625 57.661839,37.714321 
	C57.026787,38.992409 55.939034,40.236694 55.840611,41.554855 
	C55.531330,45.696888 55.711952,49.874649 55.432457,54.020344 
	C55.359837,55.097557 54.299755,56.108196 53.693226,57.149414 
	C53.002007,56.058899 51.773560,54.995724 51.716423,53.872940 
	C51.513863,49.892479 51.920345,45.877335 51.648258,41.906010 
	C51.547512,40.435535 50.208511,39.049892 49.434235,37.625557 
	C48.531292,38.969006 46.960804,40.256546 46.842777,41.665733 
	C46.371262,47.295494 46.400627,52.965256 46.151154,58.616085 
	C45.870354,64.976448 46.905449,70.576630 52.726631,72.298653 
	C52.726631,84.515625 52.763096,95.984581 52.702301,107.453026 
	C52.686069,110.515244 53.541954,112.785179 56.964172,112.959503 
	C60.439228,113.136505 62.153347,111.186081 62.357189,107.828827 
	C62.417370,106.837669 62.289612,105.835526 62.255466,104.838158 
	C61.936691,95.526741 61.776810,86.205818 61.217426,76.908905 
	C61.019150,73.613556 61.828209,71.567245 65.620041,70.156311 
z"/>
<path fill="#030303" opacity="1.000000" stroke="none" 
	d="
M86.853577,38.223457 
	C94.800903,36.084721 101.007858,41.076965 102.892403,50.234531 
	C104.804825,59.527592 105.288658,68.917496 95.403183,75.005440 
	C94.572327,75.517113 94.437592,77.635300 94.470001,78.995438 
	C94.683861,87.972710 95.030190,96.946854 95.337540,105.921867 
	C95.452179,109.269676 95.223724,112.727928 90.901550,112.836906 
	C86.664711,112.943756 85.993256,109.593605 85.981522,106.200226 
	C85.950478,97.216797 86.118607,88.228867 85.856567,79.252983 
	C85.798225,77.254532 84.809334,74.752625 83.378258,73.411636 
	C74.589531,65.176147 76.561676,42.781895 86.853577,38.223457 
z"/>
<path fill="#090909" opacity="1.000000" stroke="none" 
	d="
M65.333778,70.416771 
	C61.828209,71.567245 61.019150,73.613556 61.217426,76.908905 
	C61.776810,86.205818 61.936691,95.526741 62.255466,104.838158 
	C62.289612,105.835526 62.417370,106.837669 62.357189,107.828827 
	C62.153347,111.186081 60.439228,113.136505 56.964172,112.959503 
	C53.541954,112.785179 52.686069,110.515244 52.702301,107.453026 
	C52.763096,95.984581 52.726631,84.515625 52.726631,72.298653 
	C46.905449,70.576630 45.870354,64.976448 46.151154,58.616085 
	C46.400627,52.965256 46.371262,47.295494 46.842777,41.665733 
	C46.960804,40.256546 48.531292,38.969006 49.434231,37.625557 
	C50.208511,39.049892 51.547512,40.435535 51.648258,41.906010 
	C51.920345,45.877335 51.513863,49.892479 51.716423,53.872940 
	C51.773560,54.995724 53.002007,56.058899 53.693226,57.149414 
	C54.299755,56.108196 55.359837,55.097557 55.432457,54.020344 
	C55.711952,49.874649 55.531330,45.696888 55.840611,41.554855 
	C55.939034,40.236694 57.026787,38.992409 57.661842,37.714321 
	C58.459263,39.077625 59.831009,40.396004 59.941853,41.813015 
	C60.226120,45.447170 59.753601,49.138069 59.992867,52.779388 
	C60.091820,54.285271 61.236385,55.722446 61.905407,57.190872 
	C62.648529,55.809090 63.909779,54.472687 64.035553,53.036831 
	C64.383110,49.068924 64.073685,45.042423 64.443764,41.078274 
	C64.538147,40.067303 66.192299,39.201935 67.129799,38.269665 
	C67.803391,39.249023 69.044037,40.219215 69.060051,41.209213 
	C69.178368,48.526302 69.321785,55.864723 68.850601,63.157230 
	C68.695999,65.549850 66.747948,67.826584 65.333778,70.416771 
z"/>
</svg>