<svg version="1.1" id="Layer_1" xmlns="http://www.w3.org/2000/svg" xmlns:xlink="http://www.w3.org/1999/xlink" x="0px" y="0px"
	 width="100%" viewBox="0 0 85 110" enable-background="new 0 0 85 110" xml:space="preserve">
<path fill="#FAFAFA" opacity="1.000000" stroke="none" 
	d="
M51.000000,111.000000 
	C34.000004,111.000000 17.500008,111.000000 1.000009,111.000000 
	C1.000006,74.333344 1.000006,37.666691 1.000003,1.000029 
	C29.333313,1.000019 57.666626,1.000019 85.999954,1.000010 
	C85.999969,37.666637 85.999969,74.333275 85.999985,110.999954 
	C74.500000,111.000000 63.000000,111.000000 51.000000,111.000000 
M31.185236,97.170593 
	C30.553890,95.107491 29.707674,94.027550 27.039341,93.648155 
	C23.471754,93.140923 22.751358,95.759148 20.330877,96.876144 
	C19.301134,95.696854 18.271393,94.517563 17.241652,93.338272 
	C18.713381,92.611847 20.178797,91.269249 21.657812,91.254097 
	C36.816868,91.098839 51.978142,91.171036 67.138763,91.153999 
	C75.225746,91.144913 78.209518,88.151535 78.216682,80.015152 
	C78.234291,60.023113 78.231934,40.031036 78.218048,20.038988 
	C78.212013,11.342039 75.265053,8.390035 66.518913,8.374135 
	C51.358322,8.346576 36.197613,8.349045 21.037008,8.373393 
	C12.386492,8.387285 9.196730,11.528653 9.185171,20.045359 
	C9.162560,36.705376 9.178519,53.365448 9.178524,70.025497 
	C9.178527,79.355125 9.297203,88.686928 9.125875,98.013405 
	C9.046499,102.334366 10.787831,104.231758 15.062932,103.838760 
	C17.013262,103.659477 18.964655,103.491776 21.798609,103.442413 
	C22.192026,104.609627 22.585443,105.776848 22.752081,106.271240 
	C25.507029,106.271240 27.850775,106.271240 30.000330,106.271240 
	C30.588844,105.455887 31.342642,104.411545 32.926594,103.800201 
	C38.234371,103.808266 43.542149,103.820854 48.849930,103.823341 
	C57.143471,103.827232 65.444313,104.002541 73.723969,103.663422 
	C75.252769,103.600807 76.695908,101.446594 78.178581,100.257767 
	C77.036781,99.130127 75.901154,97.029938 74.752243,97.022644 
	C60.517780,96.932312 46.281376,97.146782 31.185236,97.170593 
z"/>
<path fill="#080908" opacity="1.000000" stroke="none" 
	d="
M20.915567,103.318817 
	C18.964655,103.491776 17.013262,103.659477 15.062932,103.838760 
	C10.787831,104.231758 9.046499,102.334366 9.125875,98.013405 
	C9.297203,88.686928 9.178527,79.355125 9.178524,70.025497 
	C9.178519,53.365448 9.162560,36.705376 9.185171,20.045359 
	C9.196730,11.528653 12.386492,8.387285 21.037008,8.373393 
	C36.197613,8.349045 51.358322,8.346576 66.518913,8.374135 
	C75.265053,8.390035 78.212013,11.342039 78.218048,20.038988 
	C78.231934,40.031036 78.234291,60.023113 78.216682,80.015152 
	C78.209518,88.151535 75.225746,91.144913 67.138763,91.153999 
	C51.978142,91.171036 36.816868,91.098839 21.657812,91.254097 
	C20.178797,91.269249 18.713381,92.611847 17.241652,93.338272 
	C18.271393,94.517563 19.301134,95.696854 20.590681,97.463074 
	C20.872179,99.806282 20.893873,101.562546 20.915567,103.318817 
M36.808575,38.790443 
	C38.948341,38.815117 40.543369,39.203609 40.097050,42.042175 
	C39.188080,47.823181 41.367649,53.646168 37.483009,59.590103 
	C35.294720,62.938438 37.088638,68.889328 37.088638,74.044708 
	C41.999733,74.044708 45.850307,74.044708 49.750957,74.044708 
	C50.062092,69.330505 50.406609,65.195229 50.556793,61.052910 
	C50.593182,60.049358 50.264149,58.789406 49.633877,58.044308 
	C45.554726,53.221970 45.464966,44.962578 49.979706,40.617512 
	C50.973835,39.660744 53.830505,39.330425 54.957428,40.059525 
	C58.726715,42.498188 60.968437,52.512753 57.946335,55.520729 
	C52.968990,60.474819 55.928596,65.734009 55.171371,71.352226 
	C65.862457,65.814697 70.668587,54.697456 67.833328,43.538940 
	C65.067642,32.654221 54.295788,24.668873 42.941570,25.086288 
	C31.275177,25.515179 21.386295,34.102470 19.244986,45.663887 
	C17.348795,55.901863 22.821487,66.914276 32.221252,71.046249 
	C32.221252,66.637695 33.693100,61.614246 31.914051,58.377792 
	C28.240002,51.693943 29.564734,45.528896 31.024057,39.938496 
	C31.024057,44.211353 31.024057,48.484211 31.024057,52.757069 
	C31.666962,52.731365 32.309868,52.705666 32.952770,52.679962 
	C32.952770,48.108673 32.952770,43.537384 33.489880,38.575909 
	C33.660564,38.716759 33.831249,38.857605 33.948376,39.927174 
	C33.948376,44.179585 33.948376,48.431992 33.948376,52.684402 
	C34.594547,52.689022 35.240719,52.693642 35.886890,52.698261 
	C35.886890,48.103817 35.886890,43.509373 36.808575,38.790443 
z"/>
<path fill="#020403" opacity="1.000000" stroke="none" 
	d="
M32.045475,97.282753 
	C46.281376,97.146782 60.517780,96.932312 74.752243,97.022644 
	C75.901154,97.029938 77.036781,99.130127 78.178581,100.257767 
	C76.695908,101.446594 75.252769,103.600807 73.723969,103.663422 
	C65.444313,104.002541 57.143471,103.827232 48.849930,103.823341 
	C43.542149,103.820854 38.234371,103.808266 32.562984,103.208588 
	C32.148075,100.838898 32.096775,99.060822 32.045475,97.282753 
z"/>
<path fill="#242525" opacity="1.000000" stroke="none" 
	d="
M31.615356,97.226669 
	C32.096775,99.060822 32.148075,100.838898 32.147907,102.992081 
	C31.342642,104.411545 30.588844,105.455887 30.000330,106.271240 
	C27.850775,106.271240 25.507029,106.271240 22.752081,106.271240 
	C22.585443,105.776848 22.192026,104.609627 21.357088,103.380615 
	C20.893873,101.562546 20.872179,99.806282 20.903769,97.673622 
	C22.751358,95.759148 23.471754,93.140923 27.039341,93.648155 
	C29.707674,94.027550 30.553890,95.107491 31.615356,97.226669 
z"/>
<path fill="#F7F7F7" opacity="1.000000" stroke="none" 
	d="
M30.984701,39.011860 
	C29.564734,45.528896 28.240002,51.693943 31.914051,58.377792 
	C33.693100,61.614246 32.221252,66.637695 32.221252,71.046249 
	C22.821487,66.914276 17.348795,55.901863 19.244986,45.663887 
	C21.386295,34.102470 31.275177,25.515179 42.941570,25.086288 
	C54.295788,24.668873 65.067642,32.654221 67.833328,43.538940 
	C70.668587,54.697456 65.862457,65.814697 55.171371,71.352226 
	C55.928596,65.734009 52.968990,60.474819 57.946335,55.520729 
	C60.968437,52.512753 58.726715,42.498188 54.957428,40.059525 
	C53.830505,39.330425 50.973835,39.660744 49.979706,40.617512 
	C45.464966,44.962578 45.554726,53.221970 49.633877,58.044308 
	C50.264149,58.789406 50.593182,60.049358 50.556793,61.052910 
	C50.406609,65.195229 50.062092,69.330505 49.750957,74.044708 
	C45.850307,74.044708 41.999733,74.044708 37.088638,74.044708 
	C37.088638,68.889328 35.294720,62.938438 37.483009,59.590103 
	C41.367649,53.646168 39.188080,47.823181 40.097050,42.042175 
	C40.543369,39.203609 38.948341,38.815117 36.031853,38.827335 
	C34.837399,38.908966 34.419666,38.953709 34.001930,38.998451 
	C33.831249,38.857605 33.660564,38.716759 32.893219,38.777145 
	C31.859270,38.989544 31.421986,39.000702 30.984701,39.011860 
z"/>
<path fill="#9A9A9A" opacity="1.000000" stroke="none" 
	d="
M31.004379,39.475178 
	C31.421986,39.000702 31.859270,38.989544 32.624664,38.972240 
	C32.952770,43.537384 32.952770,48.108673 32.952770,52.679962 
	C32.309868,52.705666 31.666962,52.731365 31.024057,52.757069 
	C31.024057,48.484211 31.024057,44.211353 31.004379,39.475178 
z"/>
<path fill="#949494" opacity="1.000000" stroke="none" 
	d="
M33.975151,39.462814 
	C34.419666,38.953709 34.837399,38.908966 35.571014,38.889580 
	C35.886890,43.509373 35.886890,48.103817 35.886890,52.698261 
	C35.240719,52.693642 34.594547,52.689022 33.948376,52.684402 
	C33.948376,48.431992 33.948376,44.179585 33.975151,39.462814 
z"/>
</svg>